#!OML:ASF I:\Actors\actors\Patient Classification 2\Patient 1\Session 1\actor1.ASF
:FULLY-SPECIFIED
:DEGREES
358
root -1.12262 18.7494 4.43325 0.656562 -6.10696 -1.19303
lowerback 18.7787 -1.81291 -7.04918
upperback 4.25666 -4.14584 -5.72201
thorax -5.83809 -1.95577 -1.18329
lowerneck -14.2329 6.9563 6.57817
upperneck 28.5619 6.88953 4.03868
head 11.8433 4.24628 1.36722
rclavicle -4.69132e-014 -6.67916e-014
rhumerus 83.0134 38.9846 0.62914
rradius 108.933
rwrist -26.8984
rhand -10.1454 -50.0284
rfingers 7.12502
rthumb 15.8436 -79.4001
lclavicle -4.69132e-014 -6.67916e-014
lhumerus 40.7783 25.4571 103.756
lradius 45.1325
lwrist 26.9528
lhand -29.361 -2.05688
lfingers 7.12502
lthumb -2.70035 27.9058
rfemur 0 0 0
rtibia 0
rfoot 0 0
rtoes 0
lfemur -4.84078 -3.17927 -11.0853
ltibia 19.3871
lfoot -21.4359 19.5159
ltoes -54.094
359
root -1.12185 18.7489 4.43522 0.581939 -6.2605 -1.1736
lowerback 19.0036 -1.86285 -6.86269
upperback 4.16418 -4.21626 -5.80713
thorax -6.07823 -1.98541 -1.35314
lowerneck -14.4355 6.96876 6.55261
upperneck 28.3831 6.91773 3.98738
head 11.8146 4.24898 1.35901
rclavicle 8.74653e-014 5.08889e-014
rhumerus 82.8223 39.0149 0.268804
rradius 109.228
rwrist -27.1467
rhand -9.93756 -50.0156
rfingers 7.12502
rthumb 16.0438 -79.3713
lclavicle 8.74653e-014 5.08889e-014
lhumerus 41.5113 26.1876 104.166
lradius 44.4563
lwrist 27.4766
lhand -29.7033 -2.39486
lfingers 7.12502
lthumb -3.03091 27.5633
rfemur 0 0 0
rtibia 0
rfoot 0 0
rtoes 0
lfemur -4.67405 -3.12933 -11.1103
ltibia 19.3064
lfoot -21.4722 19.552
ltoes -54.0391
360
root -1.11881 18.7486 4.43713 0.538453 -6.40596 -1.11699
lowerback 19.1949 -1.92848 -6.66764
upperback 4.07175 -4.30116 -5.892
thorax -6.30164 -2.02334 -1.52531
lowerneck -14.613 6.98342 6.52047
upperneck 28.1619 6.96315 3.90468
head 11.7653 4.25431 1.34026
rclavicle -7.4743e-014 -1.27222e-014
rhumerus 82.6385 39.0067 -0.0392544
rradius 109.402
rwrist -27.3905
rhand -10.1148 -49.6762
rfingers 7.12502
rthumb 15.8731 -79.0456
lclavicle -7.4743e-014 -1.27222e-014
lhumerus 42.1547 26.7959 104.398
lradius 43.8492
lwrist 28.7135
lhand -30.3288 -2.77516
lfingers 7.12502
lthumb -3.63497 27.1736
rfemur 0 0 0
rtibia 0
rfoot 0 0
rtoes 0
lfemur -4.5471 -3.07404 -11.1906
ltibia 19.2245
lfoot -21.4875 19.6156
ltoes -54.0187
361
root -1.11623 18.7484 4.43881 0.525617 -6.53271 -1.00653
lowerback 19.3335 -1.98748 -6.53417
upperback 3.98242 -4.38214 -5.96751
thorax -6.48884 -2.05975 -1.65587
lowerneck -14.7027 6.98247 6.47435
upperneck 27.843 7.00569 3.8008
head 11.6603 4.25337 1.30837
rclavicle -6.36111e-014 -1.27222e-014
rhumerus 82.3731 38.9519 -0.353626
rradius 109.602
rwrist -27.7084
rhand -10.5352 -49.2092
rfingers 7.12502
rthumb 15.4682 -78.6104
lclavicle -6.36111e-014 -1.27222e-014
lhumerus 42.7262 27.3487 104.559
lradius 43.298
lwrist 30.3417
lhand -31.1818 -3.21489
lfingers 7.12502
lthumb -4.45866 26.7182
rfemur 0 0 0
rtibia 0
rfoot 0 0
rtoes 0
lfemur -4.46728 -2.93801 -11.3245
ltibia 19.1432
lfoot -21.4338 19.662
ltoes -54.1165
362
root -1.11661 18.7485 4.43957 0.547655 -6.62814 -0.897151
lowerback 19.4454 -2.0488 -6.44229
upperback 3.88501 -4.47139 -6.0361
thorax -6.66735 -2.09972 -1.75451
lowerneck -14.8994 6.96675 6.34284
upperneck 27.6382 6.99839 3.83551
head 11.6113 4.24009 1.34212
rclavicle -7.15625e-015 2.54444e-014
rhumerus 82.0808 38.9179 -0.707055
rradius 109.882
rwrist -28.1427
rhand -10.7955 -48.9651
rfingers 7.12502
rthumb 15.2175 -78.3854
lclavicle -7.15625e-015 2.54444e-014
lhumerus 43.3185 27.909 104.742
lradius 42.7245
lwrist 32.1285
lhand -32.1068 -4.12944
lfingers 7.12502
lthumb -5.35187 25.783
rfemur 0 0 0
rtibia 0
rfoot 0 0
rtoes 0
lfemur -4.44311 -2.75831 -11.4335
ltibia 19.0628
lfoot -21.3206 19.651
ltoes -54.2201
363
root -1.11788 18.7496 4.44004 0.57706 -6.70409 -0.829769
lowerback 19.5455 -2.11583 -6.37409
upperback 3.79956 -4.56661 -6.0621
thorax -6.82135 -2.1425 -1.79275
lowerneck -15.1936 6.95498 6.15658
upperneck 27.531 6.97887 3.95013
head 11.6137 4.22686 1.41953
rclavicle -6.04305e-014 -2.54444e-014
rhumerus 81.8159 38.8934 -1.00586
rradius 110.218
rwrist -28.7357
rhand -11.3484 -48.7593
rfingers 7.12502
rthumb 14.6849 -78.2192
lclavicle -6.04305e-014 -2.54444e-014
lhumerus 44.012 28.5513 105.103
lradius 42.1537
lwrist 34.1654
lhand -33.2741 -5.54302
lfingers 7.12502
lthumb -6.47884 24.3379
rfemur 0 0 0
rtibia 0
rfoot 0 0
rtoes 0
lfemur -4.42846 -2.62776 -11.4899
ltibia 18.9877
lfoot -21.2931 19.5912
ltoes -54.0898
364
root -1.11816 18.7505 4.44263 0.580881 -6.77864 -0.785287
lowerback 19.6862 -2.17469 -6.2532
upperback 3.71189 -4.64594 -6.10056
thorax -7.0056 -2.17823 -1.87607
lowerneck -15.3609 6.92034 6.04793
upperneck 27.2741 6.94411 3.98054
head 11.5402 4.20291 1.44078
rclavicle 1.66979e-014 -1.27222e-014
rhumerus 81.4297 38.9005 -1.31272
rradius 110.691
rwrist -29.5027
rhand -12.3226 -48.2342
rfingers 7.12502
rthumb 13.7461 -77.7602
lclavicle 1.66979e-014 -1.27222e-014
lhumerus 44.6723 29.2087 105.528
lradius 41.6691
lwrist 36.4601
lhand -34.5906 -7.06497
lfingers 7.12502
lthumb -7.74967 22.773
rfemur 0 0 0
rtibia 0
rfoot 0 0
rtoes 0
lfemur -4.37833 -2.58847 -11.5383
ltibia 18.9275
lfoot -21.3632 19.5793
ltoes -53.9247
365
root -1.11804 18.7508 4.44641 0.587049 -6.87034 -0.777773
lowerback 19.8305 -2.2361 -6.06898
upperback 3.61708 -4.71681 -6.14284
thorax -7.20578 -2.21135 -2.00068
lowerneck -15.4473 6.85888 5.97464
upperneck 26.9093 6.90014 3.90852
head 11.4151 4.1646 1.41055
rclavicle 4.29375e-014 7.31528e-014
rhumerus 81.0333 38.9455 -1.56575
rradius 111.355
rwrist -30.4251
rhand -13.4109 -47.2373
rfingers 7.12502
rthumb 12.6971 -76.8313
lclavicle 4.29375e-014 7.31528e-014
lhumerus 45.3125 29.9303 105.999
lradius 41.2739
lwrist 38.5846
lhand -35.6668 -8.25799
lfingers 7.12502
lthumb -8.78832 21.539
rfemur 0 0 0
rtibia 0
rfoot 0 0
rtoes 0
lfemur -4.33036 -2.53495 -11.5504
ltibia 18.8834
lfoot -21.3897 19.628
ltoes -53.9624
366
root -1.11722 18.7508 4.44971 0.589463 -6.99533 -0.789354
lowerback 19.8763 -2.28356 -5.89928
upperback 3.59753 -4.7525 -6.15804
thorax -7.26727 -2.23147 -2.10106
lowerneck -15.7075 6.79134 5.88452
upperneck 26.649 6.83352 3.84414
head 11.3639 4.11652 1.39372
rclavicle -6.36111e-015 -2.22639e-014
rhumerus 80.6763 38.9094 -1.82659
rradius 112.089
rwrist -31.325
rhand -14.1581 -45.7836
rfingers 7.12502
rthumb 11.9767 -75.421
lclavicle -6.36111e-015 -2.22639e-014
lhumerus 46.0389 30.6767 106.591
lradius 40.9491
lwrist 40.3156
lhand -36.3227 -9.44977
lfingers 7.12502
lthumb -9.42121 20.3197
rfemur 0 0 0
rtibia 0
rfoot 0 0
rtoes 0
lfemur -4.27049 -2.44677 -11.541
ltibia 18.8462
lfoot -21.3732 19.6826
ltoes -54.0421
